<?xml version="1.0" standalone="no"?>
<!DOCTYPE svg PUBLIC "-//W3C//DTD SVG 20010904//EN"
 "http://www.w3.org/TR/2001/REC-SVG-20010904/DTD/svg10.dtd">
<svg version="1.0" xmlns="http://www.w3.org/2000/svg"
 width="1200.000000pt" height="405.000000pt" viewBox="0 0 1200.000000 405.000000"
 preserveAspectRatio="xMidYMid meet">

<g transform="translate(0.000000,405.000000) scale(0.100000,-0.100000)"
fill="#000000" stroke="none">
<path d="M0 3055 l0 -995 64 0 c63 0 64 0 70 32 12 63 53 115 110 143 53 26
55 26 249 23 l195 -3 44 -30 c48 -34 88 -96 88 -137 0 -21 5 -28 20 -28 15 0
20 7 20 28 0 41 40 103 88 137 l44 30 195 3 c194 3 196 3 249 -23 57 -28 98
-80 110 -143 6 -27 11 -32 35 -32 l29 0 0 219 c0 163 3 221 13 228 6 6 166 49
354 97 l342 87 323 -81 c178 -44 333 -82 345 -85 22 -5 23 -7 25 -233 l3 -227
31 -3 c29 -3 32 0 42 38 15 62 51 108 106 135 48 24 58 25 235 25 160 0 192
-3 226 -19 56 -26 96 -72 110 -128 15 -59 36 -63 47 -8 11 52 60 112 112 136
35 16 68 19 230 19 170 0 194 -2 231 -20 57 -27 85 -60 106 -122 21 -63 35
-71 44 -26 13 61 51 112 103 141 49 27 52 27 238 27 163 0 195 -3 229 -19 56
-26 96 -72 110 -128 11 -43 15 -48 44 -51 l31 -3 0 225 0 224 33 11 c17 5 176
47 351 91 l319 82 336 -83 c185 -46 342 -87 349 -92 9 -7 12 -66 12 -233 l0
-224 34 0 c31 0 34 3 40 38 8 52 38 97 87 129 l43 28 211 0 211 0 43 -28 c49
-32 79 -77 87 -130 9 -51 36 -47 45 6 8 49 54 106 109 135 41 20 57 22 232 22
201 0 236 -6 287 -53 28 -26 60 -93 61 -125 0 -42 30 -20 49 36 22 63 52 98
106 123 34 16 67 19 229 19 171 0 194 -2 232 -21 52 -25 90 -72 106 -133 11
-41 15 -46 40 -46 l28 0 0 219 c0 163 3 221 12 229 7 6 167 49 355 97 l342 86
308 -76 c169 -41 324 -80 345 -86 l38 -10 2 -227 3 -227 32 -3 c28 -3 33 0 38
25 11 55 47 112 89 140 41 28 42 28 231 31 214 4 247 -2 304 -54 38 -34 53
-61 65 -116 9 -41 32 -35 40 10 8 54 56 115 109 141 43 21 57 22 245 19 198
-3 199 -3 241 -31 49 -32 79 -77 87 -129 l7 -38 68 0 69 0 0 995 0 995 -6000
0 -6000 0 0 -995z"/>
<path d="M2075 2561 c-121 -32 -233 -61 -249 -65 -15 -4 -26 -9 -24 -11 2 -3
119 -31 260 -64 l256 -59 244 60 c133 32 250 62 258 65 15 5 -481 134 -510
132 -8 -1 -114 -27 -235 -58z"/>
<path d="M5728 2556 c-131 -34 -240 -65 -243 -68 -3 -3 48 -17 112 -32 65 -15
180 -42 257 -60 l138 -32 157 37 c86 21 203 50 260 65 l105 28 -250 62 c-137
35 -260 63 -274 62 -14 0 -132 -28 -262 -62z"/>
<path d="M9639 2615 c-3 -2 -106 -30 -229 -61 -124 -31 -231 -59 -238 -63 -7
-4 51 -22 130 -40 79 -19 195 -45 258 -60 l115 -27 253 62 c139 33 255 63 257
66 6 6 -492 128 -521 128 -11 0 -23 -2 -25 -5z"/>
<path d="M2645 2375 l-290 -73 -3 -431 -2 -431 27 7 c16 4 150 36 298 73 l270
66 3 432 c1 237 -1 432 -5 431 -5 0 -138 -34 -298 -74z m275 -279 c0 -8 -13
-17 -30 -21 l-30 -7 0 -76 c0 -42 -4 -83 -9 -91 -18 -29 -31 2 -31 75 l0 75
-27 -3 c-14 -2 -28 2 -30 8 -2 7 26 20 69 32 90 25 88 25 88 8z m-182 -48 c-3
-7 -24 -17 -49 -23 -38 -9 -44 -15 -47 -39 l-4 -29 47 8 c58 8 54 -9 -5 -25
-39 -11 -40 -12 -40 -55 0 -33 -4 -45 -15 -45 -12 0 -15 17 -15 94 l0 94 33
11 c72 22 100 25 95 9z m-180 -135 c-4 -122 -16 -129 -79 -47 l-44 58 -5 -69
c-3 -42 -10 -70 -17 -73 -10 -3 -13 21 -13 97 0 90 2 101 18 101 10 0 35 -22
55 -50 21 -27 42 -50 47 -50 6 0 10 29 10 65 0 52 3 65 15 65 13 0 15 -15 13
-97z"/>
<path d="M6325 2376 l-290 -72 -3 -430 -2 -431 292 72 293 71 3 217 c1 119 1
313 0 431 l-3 214 -290 -72z m280 -276 c4 -6 -9 -17 -29 -25 l-35 -15 -3 -82
c-2 -54 -7 -83 -15 -86 -10 -3 -13 17 -13 78 l0 82 -31 -4 c-58 -6 -34 17 41
39 41 12 76 22 77 22 1 1 5 -4 8 -9z m-187 -52 c-3 -7 -25 -19 -50 -26 -41
-11 -45 -15 -40 -38 4 -24 7 -25 45 -19 48 9 43 -10 -6 -23 -24 -6 -33 -15
-35 -33 -6 -51 -13 -69 -27 -69 -12 0 -15 17 -15 89 0 98 0 99 65 118 54 15
67 15 63 1z m-182 -225 c-10 -26 -33 -12 -72 42 -21 30 -42 55 -46 55 -4 0 -8
-30 -10 -67 -2 -43 -8 -68 -16 -71 -10 -3 -12 18 -10 94 4 121 16 130 74 54
21 -27 42 -50 46 -50 4 0 8 29 8 64 0 43 4 66 13 69 9 3 13 -20 15 -86 1 -50
1 -96 -2 -104z"/>
<path d="M10005 2376 l-290 -71 -3 -428 c-2 -366 0 -427 12 -427 13 0 445 103
549 131 l37 10 0 429 c0 237 -3 430 -7 429 -5 0 -138 -33 -298 -73z m275 -281
c0 -9 -12 -18 -30 -21 l-29 -6 -3 -86 c-2 -57 -7 -87 -15 -90 -10 -3 -13 17
-13 78 l0 82 -31 -4 c-79 -8 -2 32 119 61 1 1 2 -6 2 -14z m-182 -47 c-3 -7
-24 -18 -47 -23 -23 -6 -42 -14 -42 -18 1 -4 1 -16 1 -27 0 -18 4 -20 42 -14
49 8 46 -11 -5 -24 -24 -6 -33 -15 -35 -33 -6 -51 -13 -69 -27 -69 -12 0 -15
17 -15 89 0 98 0 99 65 118 54 15 67 15 63 1z m-180 -135 c-4 -119 -14 -125
-79 -43 l-44 55 -5 -69 c-3 -44 -10 -71 -18 -74 -10 -3 -12 18 -10 94 4 120
15 128 72 54 21 -27 42 -50 47 -50 5 0 9 29 9 65 0 52 3 65 15 65 13 0 15 -15
13 -97z"/>
<path d="M1680 2017 l0 -426 38 -10 c148 -40 563 -137 567 -133 3 3 5 193 5
422 0 322 -3 420 -12 427 -7 5 -137 38 -288 73 -151 35 -283 65 -292 68 -17 4
-18 -21 -18 -421z m255 78 c31 -30 32 -69 3 -89 -29 -21 -31 -20 -67 10 -34
29 -39 58 -14 86 22 25 49 23 78 -7z m128 -16 c24 -11 47 -47 47 -74 0 -20
-28 -45 -51 -45 -28 0 -69 44 -69 74 0 14 9 31 22 40 27 19 22 19 51 5z m-55
-167 c3 -9 -2 -13 -14 -10 -9 1 -19 9 -22 16 -3 9 2 13 14 10 9 -1 19 -9 22
-16z m-90 -110 c2 -12 -1 -22 -7 -22 -6 0 -11 4 -11 9 0 5 -3 17 -7 27 -4 12
-2 15 8 12 8 -2 15 -14 17 -26z m122 -132 c0 -5 -4 -10 -10 -10 -5 0 -10 5
-10 10 0 6 5 10 10 10 6 0 10 -4 10 -10z"/>
<path d="M1886 2071 c-8 -12 3 -41 15 -41 5 0 9 11 9 25 0 25 -14 34 -24 16z"/>
<path d="M2040 2020 c0 -30 13 -40 25 -20 8 13 -4 50 -16 50 -5 0 -9 -13 -9
-30z"/>
<path d="M5350 2016 l0 -424 233 -57 c127 -31 265 -64 305 -75 l72 -18 -2 431
-3 430 -265 62 c-146 34 -282 65 -302 69 l-38 7 0 -425z m320 274 c107 -22
197 -46 202 -52 4 -7 8 -165 8 -351 0 -284 -2 -338 -14 -343 -19 -7 -405 73
-423 88 -10 8 -13 81 -13 348 0 185 3 340 7 343 11 11 32 8 233 -33z"/>
<path d="M5657 2213 c-3 -5 -3 -25 -2 -46 3 -33 0 -39 -21 -47 -28 -11 -30
-22 -9 -40 27 -23 9 -90 -25 -90 -29 0 -42 -163 -14 -174 12 -4 15 -14 11 -34
-3 -15 -1 -35 5 -46 7 -13 7 -21 -2 -26 -19 -12 25 -51 66 -57 33 -6 41 4 35
41 -1 4 3 14 9 20 5 7 7 16 4 19 -4 3 1 13 10 22 11 12 16 35 16 80 0 73 -10
105 -45 147 -29 34 -32 64 -8 90 15 17 15 19 -1 31 -13 10 -19 28 -20 65 -1
54 -2 57 -9 45z m26 -297 c3 -8 3 -17 0 -20 -9 -9 -34 15 -27 25 8 13 21 11
27 -5z"/>
<path d="M5565 2070 c-8 -13 3 -50 16 -50 12 0 12 47 0 55 -5 3 -12 1 -16 -5z"/>
<path d="M5720 2019 c0 -31 19 -37 28 -9 3 7 0 10 -6 6 -6 -4 -8 2 -5 14 3 11
0 20 -6 20 -6 0 -11 -14 -11 -31z"/>
<path d="M9040 2015 l0 -424 38 -10 c20 -6 155 -39 300 -74 l262 -64 0 432 0
431 -57 12 c-32 6 -165 36 -295 66 -131 31 -240 56 -243 56 -3 0 -5 -191 -5
-425z m259 74 c26 -24 26 -76 0 -92 -45 -28 -109 35 -89 87 12 33 56 35 89 5z
m148 -31 c58 -54 -3 -136 -64 -84 -18 16 -26 32 -26 55 0 53 48 68 90 29z
m-77 -153 c0 -8 -7 -15 -15 -15 -8 0 -15 7 -15 15 0 8 7 15 15 15 8 0 15 -7
15 -15z m-90 -100 c6 -8 9 -19 5 -25 -11 -17 -22 -11 -27 15 -6 28 3 32 22 10z
m130 -65 c0 -5 -4 -10 -10 -10 -5 0 -10 5 -10 10 0 6 5 10 10 10 6 0 10 -4 10
-10z m-115 -60 c3 -5 1 -10 -4 -10 -6 0 -11 5 -11 10 0 6 2 10 4 10 3 0 8 -4
11 -10z m102 -22 c-3 -8 -6 -5 -6 6 -1 11 2 17 5 13 3 -3 4 -12 1 -19z"/>
<path d="M9257 2074 c-10 -10 -9 -54 2 -54 5 0 11 6 14 13 6 16 -7 50 -16 41z"/>
<path d="M9400 2016 c0 -17 5 -26 16 -26 10 0 14 7 12 22 -5 32 -28 35 -28 4z"/>
<path d="M239 2151 c-25 -25 -39 -48 -39 -65 0 -25 2 -26 64 -26 76 0 96 -6
96 -29 0 -31 -22 -41 -92 -41 -58 0 -68 -3 -68 -17 0 -31 36 -79 73 -96 47
-23 349 -25 401 -3 35 14 69 55 79 94 5 21 2 22 -57 22 -73 0 -108 18 -90 47
9 14 26 19 78 21 59 3 66 5 66 23 0 30 -29 74 -60 93 -23 13 -60 16 -220 16
l-192 0 -39 -39z"/>
<path d="M989 2173 c-31 -19 -59 -63 -59 -92 0 -19 6 -21 59 -21 71 0 91 -6
91 -29 0 -31 -22 -41 -91 -41 l-68 0 9 -31 c24 -84 66 -99 276 -99 186 0 221
9 255 64 34 55 27 65 -47 68 -70 3 -94 18 -81 52 5 13 21 16 78 16 l72 0 -7
33 c-3 18 -21 46 -41 65 l-35 32 -192 0 c-161 0 -197 -3 -219 -17z"/>
<path d="M3212 2170 c-29 -18 -62 -71 -62 -100 0 -6 28 -10 68 -10 84 0 111
-19 76 -54 -11 -11 -35 -16 -80 -16 -35 0 -64 -4 -64 -10 0 -28 37 -80 70 -99
34 -19 53 -21 206 -21 190 0 221 8 261 69 36 54 32 61 -41 61 -45 0 -69 5 -80
16 -35 35 -8 54 76 54 75 0 77 3 51 57 -31 67 -54 73 -263 73 -168 0 -188 -2
-218 -20z"/>
<path d="M3919 2151 c-25 -25 -39 -48 -39 -64 0 -25 2 -26 73 -29 67 -3 72 -5
75 -27 5 -32 -12 -41 -85 -41 -71 0 -78 -10 -44 -66 33 -55 69 -64 253 -64
191 0 232 12 261 73 9 19 17 40 17 46 0 6 -28 11 -66 13 -70 3 -94 18 -81 52
5 13 21 16 77 16 57 0 70 3 70 15 0 26 -28 72 -56 94 -25 20 -39 21 -222 21
l-194 0 -39 -39z"/>
<path d="M4656 2168 c-26 -20 -56 -72 -56 -98 0 -6 28 -10 68 -10 84 0 111
-19 76 -54 -11 -11 -35 -16 -80 -16 -73 0 -77 -7 -41 -61 40 -61 71 -69 257
-69 137 0 171 3 199 18 36 18 65 52 76 90 6 21 4 22 -59 22 -45 0 -69 5 -80
16 -35 35 -8 54 76 54 74 0 77 3 52 56 -33 70 -49 74 -266 74 -181 -1 -195 -2
-222 -22z"/>
<path d="M6869 2151 c-25 -25 -39 -48 -39 -65 0 -26 1 -26 70 -26 56 0 72 -3
77 -16 13 -34 -11 -49 -81 -52 -72 -3 -78 -10 -52 -61 31 -59 54 -66 248 -69
198 -4 234 4 269 62 34 55 27 66 -39 66 -64 0 -96 16 -90 46 3 16 13 19 76 22
65 3 72 5 72 23 0 30 -29 74 -60 93 -23 13 -60 16 -220 16 l-192 0 -39 -39z"/>
<path d="M7599 2151 c-25 -25 -39 -48 -39 -64 0 -25 2 -26 71 -29 57 -2 74 -7
83 -21 18 -29 -17 -47 -91 -47 -71 0 -79 -11 -44 -63 38 -58 52 -62 235 -65
221 -5 269 12 292 101 6 26 5 26 -61 29 -71 3 -95 18 -82 52 5 13 21 16 78 16
l72 0 -7 33 c-3 18 -21 46 -41 65 l-35 32 -196 0 -196 0 -39 -39z"/>
<path d="M8344 2171 c-17 -10 -36 -32 -42 -47 -23 -58 -23 -59 58 -64 64 -4
75 -8 78 -24 6 -31 -26 -46 -94 -46 l-63 0 9 -31 c24 -83 67 -99 269 -99 184
0 227 11 261 65 34 55 28 65 -38 65 -64 0 -96 16 -90 46 3 16 13 19 76 22 56
2 72 6 72 18 0 25 -28 71 -56 93 -25 20 -39 21 -218 21 -169 0 -195 -2 -222
-19z"/>
<path d="M10566 2169 c-28 -22 -56 -68 -56 -94 0 -12 13 -15 68 -15 84 0 111
-19 76 -54 -11 -11 -35 -16 -80 -16 -35 0 -64 -4 -64 -10 0 -32 38 -82 75
-100 36 -18 62 -20 206 -20 136 0 170 3 198 18 36 18 65 52 76 90 6 21 4 22
-57 22 -74 0 -91 9 -86 41 3 22 8 24 76 27 39 2 72 7 72 13 0 29 -33 81 -62
99 -30 18 -50 20 -224 20 -179 0 -193 -1 -218 -21z"/>
<path d="M11279 2151 c-25 -25 -39 -48 -39 -64 0 -25 2 -26 73 -29 65 -3 72
-5 75 -25 4 -31 -29 -45 -94 -41 -48 3 -54 1 -54 -17 0 -33 35 -81 73 -98 52
-25 357 -25 407 1 34 17 65 59 72 96 3 17 -3 19 -57 17 -71 -2 -107 16 -89 46
8 14 28 19 80 23 76 5 81 13 47 71 -32 54 -54 59 -263 59 l-192 0 -39 -39z"/>
<path d="M11136 1993 c-3 -4 -6 -18 -6 -33 0 -43 -52 -114 -102 -139 -41 -19
-60 -21 -244 -21 -188 0 -201 2 -239 23 -45 26 -80 73 -95 129 -10 35 -14 38
-45 38 l-35 0 -2 -227 -3 -228 -325 -82 c-179 -44 -337 -82 -353 -82 -35 -1
-688 157 -704 171 -10 8 -13 66 -13 229 l0 219 -29 0 c-26 0 -30 -5 -40 -44
-13 -54 -51 -100 -102 -126 -34 -18 -59 -20 -234 -20 -141 0 -205 4 -228 13
-48 21 -106 90 -113 137 -9 57 -36 54 -52 -4 -14 -53 -64 -114 -109 -132 -23
-10 -87 -14 -230 -14 -180 0 -200 2 -240 21 -51 24 -91 78 -99 132 -9 54 -36
50 -52 -7 -14 -53 -64 -114 -109 -132 -50 -22 -413 -19 -459 2 -47 23 -92 77
-106 130 -11 41 -15 44 -45 44 l-33 0 0 -224 c0 -124 -3 -227 -8 -229 -4 -3
-159 -42 -345 -88 l-339 -82 -161 37 c-89 20 -247 58 -352 85 l-190 47 -3 227
-2 227 -35 0 c-31 0 -35 -3 -35 -25 0 -42 -38 -103 -82 -132 -41 -28 -42 -28
-249 -31 -193 -3 -210 -2 -248 17 -49 25 -85 72 -100 129 -14 52 -36 55 -44 6
-13 -80 -91 -148 -183 -160 -29 -3 -120 -4 -201 -2 -130 3 -154 6 -196 27 -55
26 -95 78 -103 134 -5 27 -11 37 -25 37 -14 0 -19 -7 -19 -25 0 -31 -31 -94
-56 -116 -57 -50 -79 -54 -284 -54 -189 0 -196 1 -240 25 -50 28 -85 74 -100
132 -10 35 -14 38 -45 38 l-35 0 0 -225 c0 -224 0 -225 -22 -235 -13 -5 -166
-44 -342 -86 -371 -90 -278 -92 -725 17 -156 38 -290 74 -298 80 -10 9 -13 59
-13 230 l0 219 -29 0 c-26 0 -30 -5 -41 -47 -8 -35 -24 -60 -55 -90 -58 -55
-111 -66 -313 -61 -139 3 -162 6 -203 26 -54 26 -97 82 -106 136 -8 52 -38 50
-47 -4 -7 -47 -65 -116 -113 -137 -50 -21 -413 -18 -459 3 -48 23 -92 77 -105
129 l-11 45 -64 0 -64 0 0 -995 0 -995 6000 0 6000 0 0 994 0 994 -61 4 c-34
1 -64 1 -68 -2 -4 -3 -13 -24 -19 -48 -16 -51 -65 -110 -109 -128 -23 -10 -86
-14 -228 -14 -175 0 -200 2 -234 20 -51 25 -89 72 -103 126 -11 41 -29 60 -42
47z"/>
</g>
</svg>
